<svg width="159.000000" height="32.000000" viewBox="0 0 159 32" fill="none" xmlns="http://www.w3.org/2000/svg" xmlns:xlink="http://www.w3.org/1999/xlink">
	<desc>
			Created with Pixso.
	</desc>
	<defs/>
	<path id="Vector" d="M11.47 24.42C9 24.42 6.87 23.89 5.1 22.84C3.33 21.77 1.96 20.29 1.01 18.4C0.05 16.48 -0.43 14.28 -0.43 11.78C-0.43 9.28 0.05 7.08 1.01 5.17C1.96 3.25 3.33 1.76 5.1 0.69C6.87 -0.39 9 -0.92 11.47 -0.92C14.41 -0.92 16.81 -0.19 18.68 1.28C20.57 2.73 21.75 4.77 22.22 7.41L17.28 7.41C16.98 6.08 16.32 5.04 15.32 4.29C14.34 3.52 13.03 3.14 11.4 3.14C9.14 3.14 7.36 3.91 6.08 5.45C4.8 6.99 4.16 9.1 4.16 11.78C4.16 14.46 4.8 16.58 6.08 18.12C7.36 19.63 9.14 20.39 11.4 20.39C13.03 20.39 14.34 20.04 15.32 19.34C16.32 18.62 16.98 17.62 17.28 16.37L22.22 16.37C21.75 18.89 20.57 20.86 18.68 22.28C16.81 23.7 14.41 24.42 11.47 24.42ZM31.36 24.42C29.87 24.42 28.64 24.18 27.69 23.72C26.73 23.23 26.02 22.58 25.55 21.79C25.08 21 24.85 20.12 24.85 19.17C24.85 17.56 25.48 16.25 26.74 15.25C28 14.24 29.89 13.74 32.41 13.74L36.82 13.74L36.82 13.32C36.82 12.13 36.48 11.26 35.81 10.7C35.13 10.14 34.29 9.85 33.29 9.85C32.38 9.85 31.58 10.08 30.91 10.52C30.23 10.94 29.81 11.57 29.65 12.41L25.27 12.41C25.39 11.15 25.81 10.05 26.53 9.12C27.28 8.19 28.23 7.48 29.4 6.99C30.57 6.47 31.87 6.22 33.32 6.22C35.79 6.22 37.74 6.83 39.17 8.07C40.59 9.31 41.3 11.06 41.3 13.32L41.3 24L37.49 24L37.07 21.2C36.55 22.13 35.83 22.9 34.9 23.51C33.99 24.11 32.81 24.42 31.36 24.42ZM32.38 20.92C33.66 20.92 34.65 20.5 35.35 19.66C36.07 18.82 36.53 17.78 36.72 16.54L32.9 16.54C31.71 16.54 30.86 16.76 30.35 17.2C29.83 17.62 29.58 18.15 29.58 18.78C29.58 19.46 29.83 19.98 30.35 20.36C30.86 20.73 31.54 20.92 32.38 20.92ZM52.05 24.42C50.51 24.42 49.16 24.17 47.99 23.68C46.82 23.17 45.89 22.47 45.19 21.58C44.49 20.69 44.07 19.67 43.93 18.5L48.45 18.5C48.59 19.18 48.96 19.76 49.57 20.25C50.2 20.72 51 20.95 51.98 20.95C52.96 20.95 53.67 20.75 54.12 20.36C54.58 19.96 54.82 19.5 54.82 18.99C54.82 18.24 54.49 17.74 53.84 17.49C53.18 17.2 52.27 16.94 51.11 16.68C50.36 16.52 49.6 16.32 48.83 16.09C48.06 15.85 47.35 15.56 46.7 15.21C46.07 14.84 45.55 14.37 45.16 13.81C44.76 13.23 44.56 12.52 44.56 11.68C44.56 10.14 45.17 8.84 46.38 7.79C47.62 6.74 49.34 6.22 51.56 6.22C53.61 6.22 55.25 6.69 56.46 7.65C57.7 8.61 58.43 9.93 58.67 11.61L54.43 11.61C54.17 10.32 53.21 9.68 51.53 9.68C50.69 9.68 50.03 9.84 49.57 10.17C49.12 10.5 48.9 10.91 48.9 11.4C48.9 11.91 49.24 12.32 49.92 12.62C50.59 12.92 51.49 13.2 52.61 13.46C53.82 13.74 54.93 14.06 55.94 14.41C56.96 14.73 57.78 15.23 58.39 15.91C58.99 16.56 59.3 17.51 59.3 18.75C59.32 19.82 59.04 20.79 58.46 21.65C57.87 22.51 57.03 23.19 55.94 23.68C54.84 24.17 53.54 24.42 52.05 24.42ZM69.75 24C67.93 24 66.47 23.55 65.38 22.67C64.28 21.78 63.73 20.2 63.73 17.94L63.73 10.38L60.76 10.38L60.76 6.64L63.73 6.64L64.26 1.98L68.21 1.98L68.21 6.64L72.9 6.64L72.9 10.38L68.21 10.38L68.21 17.98C68.21 18.82 68.39 19.4 68.74 19.73C69.11 20.03 69.74 20.18 70.63 20.18L72.8 20.18L72.8 24L69.75 24ZM82.03 24.42C80.54 24.42 79.32 24.18 78.36 23.72C77.4 23.23 76.69 22.58 76.22 21.79C75.76 21 75.52 20.12 75.52 19.17C75.52 17.56 76.15 16.25 77.41 15.25C78.67 14.24 80.56 13.74 83.08 13.74L87.49 13.74L87.49 13.32C87.49 12.13 87.16 11.26 86.48 10.7C85.8 10.14 84.96 9.85 83.96 9.85C83.05 9.85 82.26 10.08 81.58 10.52C80.9 10.94 80.48 11.57 80.32 12.41L75.94 12.41C76.06 11.15 76.48 10.05 77.2 9.12C77.95 8.19 78.91 7.48 80.07 6.99C81.24 6.47 82.55 6.22 83.99 6.22C86.47 6.22 88.42 6.83 89.84 8.07C91.26 9.31 91.97 11.06 91.97 13.32L91.97 24L88.16 24L87.74 21.2C87.23 22.13 86.5 22.9 85.57 23.51C84.66 24.11 83.48 24.42 82.03 24.42ZM83.05 20.92C84.33 20.92 85.32 20.5 86.02 19.66C86.75 18.82 87.2 17.78 87.39 16.54L83.57 16.54C82.38 16.54 81.53 16.76 81.02 17.2C80.51 17.62 80.25 18.15 80.25 18.78C80.25 19.46 80.51 19.98 81.02 20.36C81.53 20.73 82.21 20.92 83.05 20.92ZM98.77 24L93.7 6.64L98.14 6.64L101.15 19.13L104.65 6.64L109.62 6.64L113.12 19.13L116.17 6.64L120.61 6.64L115.5 24L110.85 24L107.14 11.01L103.43 24L98.77 24ZM127.84 24.42C126.34 24.42 125.12 24.18 124.16 23.72C123.21 23.23 122.49 22.58 122.03 21.79C121.56 21 121.33 20.12 121.33 19.17C121.33 17.56 121.96 16.25 123.22 15.25C124.48 14.24 126.37 13.74 128.89 13.74L133.3 13.74L133.3 13.32C133.3 12.13 132.96 11.26 132.28 10.7C131.61 10.14 130.77 9.85 129.76 9.85C128.85 9.85 128.06 10.08 127.38 10.52C126.71 10.94 126.29 11.57 126.12 12.41L121.75 12.41C121.86 11.15 122.28 10.05 123.01 9.12C123.75 8.19 124.71 7.48 125.88 6.99C127.04 6.47 128.35 6.22 129.8 6.22C132.27 6.22 134.22 6.83 135.64 8.07C137.07 9.31 137.78 11.06 137.78 13.32L137.78 24L133.96 24L133.54 21.2C133.03 22.13 132.31 22.9 131.37 23.51C130.46 24.11 129.28 24.42 127.84 24.42ZM128.85 20.92C130.14 20.92 131.13 20.5 131.83 19.66C132.55 18.82 133 17.78 133.19 16.54L129.38 16.54C128.19 16.54 127.34 16.76 126.82 17.2C126.31 17.62 126.05 18.15 126.05 18.78C126.05 19.46 126.31 19.98 126.82 20.36C127.34 20.73 128.01 20.92 128.85 20.92ZM142.94 31.7L146.97 22.84L145.92 22.84L139.16 6.64L144.03 6.64L148.89 18.85L153.97 6.64L158.73 6.64L147.7 31.7L142.94 31.7Z" fill="#FFFFFF" fill-opacity="1.000000" fill-rule="nonzero"/>
</svg>
